HIERARCHY
ROOT hip
{
  OFFSET 0 90.174 2.4664
  CHANNELS 6 Xposition Yposition Zposition Zrotation Xrotation Yrotation
  JOINT abdomen
  {
    OFFSET 0 -1.186 -1.5018
    CHANNELS 6 Xposition Yposition Zposition Zrotation Xrotation Yrotation
    JOINT abdomen2
    {
      OFFSET 0 9.964 0.2134
      CHANNELS 6 Xposition Yposition Zposition Zrotation Xrotation Yrotation
      JOINT chest
      {
        OFFSET 0 13.134 -3.2573
        CHANNELS 6 Xposition Yposition Zposition Zrotation Xrotation Yrotation
        JOINT neck
        {
          OFFSET 0 20.686 -1.6905
          CHANNELS 6 Xposition Yposition Zposition Zrotation Xrotation Yrotation
          JOINT head
          {
            OFFSET 0 7.238 -0.1237
            CHANNELS 6 Xposition Yposition Zposition Zrotation Xrotation Yrotation
            End Site
            {
              OFFSET 0 0 0
            }
          }
        }
        JOINT lCollar
        {
          OFFSET 1.7069 20.075 5.0056
          CHANNELS 6 Xposition Yposition Zposition Zrotation Xrotation Yrotation
          JOINT lShldr
          {
            OFFSET 13.6458 -0.047 -4.849
            CHANNELS 6 Xposition Yposition Zposition Zrotation Xrotation Yrotation
            JOINT lForeArm
            {
              OFFSET 28.3255 -0.9759 2.2888
              CHANNELS 6 Xposition Yposition Zposition Zrotation Xrotation Yrotation
              JOINT lHand
              {
                OFFSET 22.1583 -0.53 10.8316
                CHANNELS 6 Xposition Yposition Zposition Zrotation Xrotation Yrotation
                JOINT lThumb1
                {
                  OFFSET 0.786 0.112 2.5817
                  CHANNELS 6 Xposition Yposition Zposition Zrotation Xrotation Yrotation
                  JOINT lThumb2
                  {
                    OFFSET 0.3601 -0.878 4.2331
                    CHANNELS 6 Xposition Yposition Zposition Zrotation Xrotation Yrotation
                    JOINT lThumb2_End
                    {
                      OFFSET 1.8127 -1.216 2.2227
                      CHANNELS 6 Xposition Yposition Zposition Zrotation Xrotation Yrotation
                      End Site
                      {
                        OFFSET 0.0181 -0.0122 0.0222
                      }
                    }
                  }
                }
                JOINT lCarpal1
                {
                  OFFSET 0.9571 1.114 1.7695
                  CHANNELS 6 Xposition Yposition Zposition Zrotation Xrotation Yrotation
                  JOINT lIndex1
                  {
                    OFFSET 4.1246 0.487 4.1451
                    CHANNELS 6 Xposition Yposition Zposition Zrotation Xrotation Yrotation
                    JOINT lIndex2
                    {
                      OFFSET 3.4052 -1.454 2.7682
                      CHANNELS 6 Xposition Yposition Zposition Zrotation Xrotation Yrotation
                      JOINT lIndex2_End
                      {
                        OFFSET 1.4531 -1.795 1.2713
                        CHANNELS 6 Xposition Yposition Zposition Zrotation Xrotation Yrotation
                        End Site
                        {
                          OFFSET 0.0145 -0.0179 0.0127
                        }
                      }
                    }
                  }
                  JOINT lMid1
                  {
                    OFFSET 5.6954 0.21 2.1184
                    CHANNELS 6 Xposition Yposition Zposition Zrotation Xrotation Yrotation
                    JOINT lMid2
                    {
                      OFFSET 3.9766 -1.54 2.3863
                      CHANNELS 6 Xposition Yposition Zposition Zrotation Xrotation Yrotation
                      JOINT lMid2_End
                      {
                        OFFSET 1.4042 -1.926 1.125
                        CHANNELS 6 Xposition Yposition Zposition Zrotation Xrotation Yrotation
                        End Site
                        {
                          OFFSET 0.014 -0.0193 0.0113
                        }
                      }
                    }
                  }
                }
                JOINT lCarpal2
                {
                  OFFSET 2.0956 0.66 -0.3894
                  CHANNELS 6 Xposition Yposition Zposition Zrotation Xrotation Yrotation
                  JOINT lRing1
                  {
                    OFFSET 5.0395 -0.09 2.4971
                    CHANNELS 6 Xposition Yposition Zposition Zrotation Xrotation Yrotation
                    JOINT lRing2
                    {
                      OFFSET 3.7921 -1.552 1.4806
                      CHANNELS 6 Xposition Yposition Zposition Zrotation Xrotation Yrotation
                      JOINT lRing2_End
                      {
                        OFFSET 1.4655 -1.808 0.9609
                        CHANNELS 6 Xposition Yposition Zposition Zrotation Xrotation Yrotation
                        End Site
                        {
                          OFFSET 0.0147 -0.0181 0.0096
                        }
                      }
                    }
                  }
                  JOINT lPinky1
                  {
                    OFFSET 4.9141 -1.269 0.3591
                    CHANNELS 6 Xposition Yposition Zposition Zrotation Xrotation Yrotation
                    JOINT lPinky2
                    {
                      OFFSET 3.1477 -1.685 0.8462
                      CHANNELS 6 Xposition Yposition Zposition Zrotation Xrotation Yrotation
                      JOINT lPinky2_End
                      {
                        OFFSET 0.8055 -1.585 0.7955
                        CHANNELS 6 Xposition Yposition Zposition Zrotation Xrotation Yrotation
                        End Site
                        {
                          OFFSET 0.0081 -0.0158 0.008
                        }
                      }
                    }
                  }
                }
              }
            }
          }
        }
        JOINT rCollar
        {
          OFFSET -1.7069 20.075 5.0056
          CHANNELS 6 Xposition Yposition Zposition Zrotation Xrotation Yrotation
          JOINT rShldr
          {
            OFFSET -13.6458 -0.047 -4.849
            CHANNELS 6 Xposition Yposition Zposition Zrotation Xrotation Yrotation
            JOINT rForeArm
            {
              OFFSET -28.3255 -0.9759 2.2888
              CHANNELS 6 Xposition Yposition Zposition Zrotation Xrotation Yrotation
              JOINT rHand
              {
                OFFSET -22.1583 -0.53 10.8316
                CHANNELS 6 Xposition Yposition Zposition Zrotation Xrotation Yrotation
                JOINT rThumb1
                {
                  OFFSET -0.786 0.112 2.5817
                  CHANNELS 6 Xposition Yposition Zposition Zrotation Xrotation Yrotation
                  JOINT rThumb2
                  {
                    OFFSET -0.3601 -0.878 4.2331
                    CHANNELS 6 Xposition Yposition Zposition Zrotation Xrotation Yrotation
                    JOINT rThumb2_End
                    {
                      OFFSET -1.8127 -1.216 2.2227
                      CHANNELS 6 Xposition Yposition Zposition Zrotation Xrotation Yrotation
                      End Site
                      {
                        OFFSET -0.0181 -0.0122 0.0222
                      }
                    }
                  }
                }
                JOINT rCarpal1
                {
                  OFFSET -0.9571 1.114 1.7695
                  CHANNELS 6 Xposition Yposition Zposition Zrotation Xrotation Yrotation
                  JOINT rIndex1
                  {
                    OFFSET -4.1246 0.487 4.1451
                    CHANNELS 6 Xposition Yposition Zposition Zrotation Xrotation Yrotation
                    JOINT rIndex2
                    {
                      OFFSET -3.4052 -1.454 2.7682
                      CHANNELS 6 Xposition Yposition Zposition Zrotation Xrotation Yrotation
                      JOINT rIndex2_End
                      {
                        OFFSET -1.4531 -1.795 1.2713
                        CHANNELS 6 Xposition Yposition Zposition Zrotation Xrotation Yrotation
                        End Site
                        {
                          OFFSET -0.0145 -0.018 0.0127
                        }
                      }
                    }
                  }
                  JOINT rMid1
                  {
                    OFFSET -5.6954 0.21 2.1184
                    CHANNELS 6 Xposition Yposition Zposition Zrotation Xrotation Yrotation
                    JOINT rMid2
                    {
                      OFFSET -3.9766 -1.54 2.3863
                      CHANNELS 6 Xposition Yposition Zposition Zrotation Xrotation Yrotation
                      JOINT rMid2_End
                      {
                        OFFSET -1.4042 -1.926 1.125
                        CHANNELS 6 Xposition Yposition Zposition Zrotation Xrotation Yrotation
                        End Site
                        {
                          OFFSET -0.014 -0.0193 0.0113
                        }
                      }
                    }
                  }
                }
                JOINT rCarpal2
                {
                  OFFSET -2.0956 0.66 -0.3894
                  CHANNELS 6 Xposition Yposition Zposition Zrotation Xrotation Yrotation
                  JOINT rRing1
                  {
                    OFFSET -5.0395 -0.09 2.4971
                    CHANNELS 6 Xposition Yposition Zposition Zrotation Xrotation Yrotation
                    JOINT rRing2
                    {
                      OFFSET -3.7921 -1.552 1.4806
                      CHANNELS 6 Xposition Yposition Zposition Zrotation Xrotation Yrotation
                      JOINT rRing2_End
                      {
                        OFFSET -1.4655 -1.808 0.9609
                        CHANNELS 6 Xposition Yposition Zposition Zrotation Xrotation Yrotation
                        End Site
                        {
                          OFFSET -0.0147 -0.0181 0.0096
                        }
                      }
                    }
                  }
                  JOINT rPinky1
                  {
                    OFFSET -4.9141 -1.269 0.3592
                    CHANNELS 6 Xposition Yposition Zposition Zrotation Xrotation Yrotation
                    JOINT rPinky2
                    {
                      OFFSET -3.1477 -1.685 0.8462
                      CHANNELS 6 Xposition Yposition Zposition Zrotation Xrotation Yrotation
                      JOINT rPinky2_End
                      {
                        OFFSET -0.8055 -1.585 0.7955
                        CHANNELS 6 Xposition Yposition Zposition Zrotation Xrotation Yrotation
                        End Site
                        {
                          OFFSET -0.0081 -0.0158 0.008
                        }
                      }
                    }
                  }
                }
              }
            }
          }
        }
      }
    }
  }
  JOINT lThigh
  {
    OFFSET 8.367 -8.2066 0.5982
    CHANNELS 6 Xposition Yposition Zposition Zrotation Xrotation Yrotation
    JOINT lShin
    {
      OFFSET 2.1923 -43.463 -0.4932
      CHANNELS 6 Xposition Yposition Zposition Zrotation Xrotation Yrotation
      JOINT lFoot
      {
        OFFSET 0.7333 -45.8593 -2.6451
        CHANNELS 6 Xposition Yposition Zposition Zrotation Xrotation Yrotation
        End Site
        {
          OFFSET 2.6618 -4.2699 12.3931
        }
      }
    }
  }
  JOINT rThigh
  {
    OFFSET -8.367 -8.2066 0.5982
    CHANNELS 6 Xposition Yposition Zposition Zrotation Xrotation Yrotation
    JOINT rShin
    {
      OFFSET -2.1923 -43.463 -0.4931
      CHANNELS 6 Xposition Yposition Zposition Zrotation Xrotation Yrotation
      JOINT rFoot
      {
        OFFSET -0.7333 -45.8593 -2.6451
        CHANNELS 6 Xposition Yposition Zposition Zrotation Xrotation Yrotation
        End Site
        {
          OFFSET -2.6618 -4.2699 12.3931
        }
      }
    }
  }
}
MOTION
Frames:	4
Frame Time:	0.0333333
8.00189e-005 36.6041 27.17 -0.0268159 -74.9991 179.979 0 -1.186 -1.5018 -0.707199 4.4229 -0.581687 -5.55112e-017 9.964 0.2134 -1.37535 8.85246 -1.11339 0 13.134 -3.2573 -1.37536 8.85246 -1.11339 6.66134e-016 20.686 -1.6905 -5.18169e-005 -5.71703 -1.17933e-006 -2.22045e-016 7.238 -0.1237 -5.07728e-007 9.48696 -1.67468e-007 1.7069 20.075 5.0056 -7.3919 2.9299 30.1263 13.6458 -0.047 -4.849 9.62666 -20.3627 -57.2608 28.3255 -0.9759 2.2888 -39.9316 -41.8245 -117.913 22.1583 -0.53 10.8316 38.1635 24.5936 -3.33392 0.786 0.112 2.5817 -1.59028e-015 -5.96354e-016 3.18055e-015 0.3601 -0.878 4.2331 4.77083e-015 -3.57812e-015 1.59028e-015 1.8127 -1.216 2.2227 3.18055e-015 -8.94531e-016 3.18055e-015 0.9571 1.114 1.7695 -4.77083e-015 2.78299e-015 2.38542e-015 4.1246 0.487 4.1451 3.18055e-015 -1.36167e-014 1.59028e-015 3.4052 -1.454 2.7682 3.18055e-015 -3.8763e-015 1.59028e-015 1.4531 -1.795 1.2713 -1.59028e-015 -3.8763e-015 1.59028e-015 5.6954 0.21 2.1184 3.18055e-015 -1.36167e-014 1.59028e-015 3.9766 -1.54 2.3863 3.18055e-015 -3.8763e-015 1.59028e-015 1.4042 -1.926 1.125 -1.59028e-015 -3.8763e-015 1.59028e-015 2.0956 0.66 -0.3894 -4.77083e-015 2.78299e-015 2.38542e-015 5.0395 -0.09 2.4971 3.18055e-015 -1.36167e-014 1.59028e-015 3.7921 -1.552 1.4806 3.18055e-015 -3.8763e-015 1.59028e-015 1.4655 -1.808 0.9609 -1.59028e-015 -3.8763e-015 1.59028e-015 4.9141 -1.269 0.3591 3.18055e-015 -1.36167e-014 1.59028e-015 3.1477 -1.685 0.8462 3.18055e-015 -3.8763e-015 1.59028e-015 0.8055 -1.585 0.7955 -1.59028e-015 -3.8763e-015 1.59028e-015 -1.7069 20.075 5.0056 13.9726 0.741054 -28.5739 -13.6458 -0.047 -4.849 -7.31816 -15.6895 56.1635 -28.3255 -0.9759 2.2888 34.4635 -40.7303 118.424 -22.1583 -0.53 10.8316 -38.8671 24.2681 4.58773 -0.786 0.112 2.5817 -1.16787e-006 -7.00929e-007 5.09401e-006 -0.3601 -0.878 4.2331 1.78674e-006 -5.54059e-007 -3.12506e-007 -1.8127 -1.216 2.2227 -5.889e-007 -9.70442e-008 4.94428e-006 -0.9571 1.114 1.7695 1.51728e-032 2.18663e-015 -3.97569e-016 -4.1246 0.487 4.1451 -1.16787e-006 -7.0093e-007 5.09401e-006 -3.4052 -1.454 2.7682 1.78674e-006 -5.54059e-007 -3.12506e-007 -1.4531 -1.795 1.2713 -5.889e-007 -9.70442e-008 4.94428e-006 -5.6954 0.21 2.1184 -1.16787e-006 -7.0093e-007 5.09401e-006 -3.9766 -1.54 2.3863 1.78674e-006 -5.54059e-007 -3.12506e-007 -1.4042 -1.926 1.125 -5.889e-007 -9.70442e-008 4.94428e-006 -2.0956 0.66 -0.3894 1.51728e-032 2.18663e-015 -3.97569e-016 -5.0395 -0.09 2.4971 -1.16787e-006 -7.0093e-007 5.09401e-006 -3.7921 -1.552 1.4806 1.78674e-006 -5.54059e-007 -3.12506e-007 -1.4655 -1.808 0.9609 -5.889e-007 -9.70442e-008 4.94428e-006 -4.9141 -1.269 0.3592 -1.16787e-006 -7.0093e-007 5.09401e-006 -3.1477 -1.685 0.8462 1.78674e-006 -5.54059e-007 -3.12506e-007 -0.8055 -1.585 0.7955 -5.889e-007 -9.70442e-008 4.94428e-006 8.367 -8.2066 0.5982 104.711 -66.5443 120.873 2.1923 -43.463 -0.4932 164.199 74.53 -161.344 0.7333 -45.8593 -2.6451 18.2762 58.7846 -8.84398 -8.367 -8.2066 0.5982 -104.811 -66.4114 -121.097 -2.1923 -43.463 -0.4931 -164.038 74.4155 161.22 -0.7333 -45.8593 -2.6451 -18.632 59.3415 9.09084 
8.00189e-005 36.6041 27.2713 -0.0268159 -74.9991 179.979 0 -1.186 -1.5018 -0.703097 4.39971 -0.575116 0 9.964 0.2134 -1.3678 8.80597 -1.10075 0 13.134 -3.2573 -1.3678 8.80598 -1.10075 -4.44089e-016 20.686 -1.6905 -9.41243e-005 -5.52707 -1.28072e-005 2.22045e-016 7.238 -0.1237 -6.59615e-009 8.476 -9.45381e-007 1.7069 20.075 5.0056 -7.20865 2.95254 29.9278 13.6458 -0.047 -4.849 9.64379 -20.4435 -57.0826 28.3255 -0.9759 2.2888 -40.0886 -41.9264 -117.915 22.1583 -0.53 10.8316 38.0555 24.5992 -3.24289 0.786 0.112 2.5817 3.18055e-015 -9.93923e-017 -1.59028e-015 0.3601 -0.878 4.2331 3.18055e-015 2.5842e-015 -0 1.8127 -1.216 2.2227 1.59028e-015 -8.94531e-016 -1.59028e-015 0.9571 1.114 1.7695 1.59028e-015 -3.08116e-015 -1.59028e-015 4.1246 0.487 4.1451 6.36111e-015 2.85256e-014 2.38542e-015 3.4052 -1.454 2.7682 -5.51738e-033 -3.97569e-016 -7.95139e-016 1.4531 -1.795 1.2713 3.18055e-015 -3.37934e-015 -7.95139e-016 5.6954 0.21 2.1184 6.36111e-015 2.85256e-014 2.38542e-015 3.9766 -1.54 2.3863 -5.51738e-033 -3.97569e-016 -7.95139e-016 1.4042 -1.926 1.125 3.18055e-015 -3.37934e-015 -7.95139e-016 2.0956 0.66 -0.3894 1.59028e-015 -3.08116e-015 -1.59028e-015 5.0395 -0.09 2.4971 6.36111e-015 2.85256e-014 2.38542e-015 3.7921 -1.552 1.4806 -5.51738e-033 -3.97569e-016 -7.95139e-016 1.4655 -1.808 0.9609 3.18055e-015 -3.37934e-015 -7.95139e-016 4.9141 -1.269 0.3591 6.36111e-015 2.85256e-014 2.38542e-015 3.1477 -1.685 0.8462 -5.51738e-033 -3.97569e-016 -7.95139e-016 0.8055 -1.585 0.7955 3.18055e-015 -3.37934e-015 -7.95139e-016 -1.7069 20.075 5.0056 13.8071 0.732003 -28.3693 -13.6458 -0.047 -4.849 -7.33643 -15.7697 55.9879 -28.3255 -0.9759 2.2888 34.6056 -40.8236 118.421 -22.1583 -0.53 10.8316 -38.7461 24.2765 4.48026 -0.786 0.112 2.5817 2.1035e-031 1.51573e-014 -7.95139e-016 -0.3601 -0.878 4.2331 1.15814e-006 1.20753e-006 -2.98782e-007 -1.8127 -1.216 2.2227 9.54166e-015 -1.44119e-015 -6.36111e-015 -0.9571 1.114 1.7695 7.95139e-016 2.38542e-015 -3.97569e-016 -4.1246 0.487 4.1451 4.77083e-015 -4.22417e-014 4.37326e-015 -3.4052 -1.454 2.7682 1.15814e-006 1.20753e-006 -2.98782e-007 -1.4531 -1.795 1.2713 1.03368e-014 -4.87022e-015 -6.36111e-015 -5.6954 0.21 2.1184 4.77083e-015 -4.22417e-014 4.37326e-015 -3.9766 -1.54 2.3863 1.15814e-006 1.20753e-006 -2.98782e-007 -1.4042 -1.926 1.125 1.03368e-014 -4.87022e-015 -6.36111e-015 -2.0956 0.66 -0.3894 7.95139e-016 2.38542e-015 -3.97569e-016 -5.0395 -0.09 2.4971 4.77083e-015 -4.22417e-014 4.37326e-015 -3.7921 -1.552 1.4806 1.15814e-006 1.20753e-006 -2.98782e-007 -1.4655 -1.808 0.9609 1.03368e-014 -4.87022e-015 -6.36111e-015 -4.9141 -1.269 0.3592 4.77083e-015 -4.22417e-014 4.37326e-015 -3.1477 -1.685 0.8462 1.15814e-006 1.20753e-006 -2.98782e-007 -0.8055 -1.585 0.7955 1.03368e-014 -4.87022e-015 -6.36111e-015 8.367 -8.2066 0.5982 104.711 -66.5443 120.873 2.1923 -43.463 -0.4932 164.199 74.53 -161.344 0.7333 -45.8593 -2.6451 18.2762 58.7846 -8.84398 -8.367 -8.2066 0.5982 -104.81 -66.4115 -121.097 -2.1923 -43.463 -0.4931 -164.038 74.4157 161.22 -0.7333 -45.8593 -2.6451 -18.632 59.3415 9.09084 
8.00189e-005 36.6041 27.3725 -0.0268159 -74.9991 179.979 0 -1.186 -1.5018 -0.698933 4.3765 -0.568579 -2.77556e-017 9.964 0.2134 -1.36012 8.75941 -1.08818 1.11022e-016 13.134 -3.2573 -1.36012 8.75944 -1.08818 0 20.686 -1.6905 -5.05226e-005 -5.33789 -9.03769e-006 2.22045e-016 7.238 -0.1237 -2.11394e-007 7.46317 -1.99061e-007 1.7069 20.075 5.0056 -7.02532 2.97459 29.7291 13.6458 -0.047 -4.849 9.66118 -20.5243 -56.9044 28.3255 -0.9759 2.2888 -40.2459 -42.0282 -117.918 22.1583 -0.53 10.8316 37.9474 24.6045 -3.15184 0.786 0.112 2.5817 1.96523e-006 -1.13608e-006 4.96347e-006 0.3601 -0.878 4.2331 1.76442e-006 -1.12748e-006 -9.27508e-007 1.8127 -1.216 2.2227 -1.10348e-032 7.95139e-016 7.95139e-016 0.9571 1.114 1.7695 6.06912e-032 4.37326e-015 -7.95139e-016 4.1246 0.487 4.1451 1.96523e-006 -1.13608e-006 4.96347e-006 3.4052 -1.454 2.7682 1.76442e-006 -1.12748e-006 -9.27508e-007 1.4531 -1.795 1.2713 3.5863e-032 -2.5842e-015 7.95139e-016 5.6954 0.21 2.1184 1.96523e-006 -1.13608e-006 4.96347e-006 3.9766 -1.54 2.3863 1.76442e-006 -1.12748e-006 -9.27508e-007 1.4042 -1.926 1.125 3.5863e-032 -2.5842e-015 7.95139e-016 2.0956 0.66 -0.3894 6.06912e-032 4.37326e-015 -7.95139e-016 5.0395 -0.09 2.4971 1.96523e-006 -1.13608e-006 4.96347e-006 3.7921 -1.552 1.4806 1.76442e-006 -1.12748e-006 -9.27508e-007 1.4655 -1.808 0.9609 3.5863e-032 -2.5842e-015 7.95139e-016 4.9141 -1.269 0.3591 1.96523e-006 -1.13608e-006 4.96347e-006 3.1477 -1.685 0.8462 1.76442e-006 -1.12748e-006 -9.27508e-007 0.8055 -1.585 0.7955 3.5863e-032 -2.5842e-015 7.95139e-016 -1.7069 20.075 5.0056 13.6415 0.722414 -28.1647 -13.6458 -0.047 -4.849 -7.35497 -15.8498 55.812 -28.3255 -0.9759 2.2888 34.7478 -40.9169 118.418 -22.1583 -0.53 10.8316 -38.625 24.2848 4.37278 -0.786 0.112 2.5817 -6.28132e-007 1.76198e-006 1.69198e-008 -0.3601 -0.878 4.2331 7.95139e-016 -2.18663e-015 7.95139e-016 -1.8127 -1.216 2.2227 -6.28132e-007 1.76198e-006 1.69198e-008 -0.9571 1.114 1.7695 -0 -5.06901e-015 -0 -4.1246 0.487 4.1451 -6.28132e-007 1.76198e-006 1.69198e-008 -3.4052 -1.454 2.7682 -1.59028e-015 -7.95139e-015 -3.97569e-016 -1.4531 -1.795 1.2713 -6.28132e-007 1.76198e-006 1.69198e-008 -5.6954 0.21 2.1184 -6.28132e-007 1.76198e-006 1.69198e-008 -3.9766 -1.54 2.3863 -1.59028e-015 -7.95139e-015 -3.97569e-016 -1.4042 -1.926 1.125 -6.28132e-007 1.76198e-006 1.69198e-008 -2.0956 0.66 -0.3894 -0 -5.06901e-015 -0 -5.0395 -0.09 2.4971 -6.28132e-007 1.76198e-006 1.69198e-008 -3.7921 -1.552 1.4806 -1.59028e-015 -7.95139e-015 -3.97569e-016 -1.4655 -1.808 0.9609 -6.28132e-007 1.76198e-006 1.69198e-008 -4.9141 -1.269 0.3592 -6.28132e-007 1.76198e-006 1.69198e-008 -3.1477 -1.685 0.8462 -1.59028e-015 -7.95139e-015 -3.97569e-016 -0.8055 -1.585 0.7955 -6.28132e-007 1.76198e-006 1.69198e-008 8.367 -8.2066 0.5982 104.711 -66.5443 120.873 2.1923 -43.463 -0.4932 164.199 74.53 -161.344 0.7333 -45.8593 -2.6451 18.2762 58.7846 -8.84398 -8.367 -8.2066 0.5982 -104.81 -66.4115 -121.097 -2.1923 -43.463 -0.4931 -164.038 74.4157 161.22 -0.7333 -45.8593 -2.6451 -18.632 59.3415 9.09084 
8.04004e-005 36.6041 27.4738 -0.0268159 -74.9991 179.979 4.33681e-019 -1.186 -1.5018 -0.694712 4.35331 -0.562079 5.55112e-017 9.964 0.2134 -1.35231 8.71287 -1.07569 1.11022e-016 13.134 -3.2573 -1.35231 8.71285 -1.07569 0 20.686 -1.6905 -5.46681e-005 -5.14846 -4.56798e-006 4.44089e-016 7.238 -0.1237 -6.41098e-007 6.4486 -3.1521e-007 1.7069 20.075 5.0056 -6.84188 2.99596 29.5304 13.6458 -0.047 -4.849 9.67888 -20.605 -56.7259 28.3255 -0.9759 2.2888 -40.4036 -42.13 -117.921 22.1583 -0.53 10.8316 37.8394 24.6098 -3.06079 0.786 0.112 2.5817 -3.97569e-015 -3.08116e-015 -3.18055e-015 0.3601 -0.878 4.2331 -2.38542e-015 0 -1.59028e-015 1.8127 -1.216 2.2227 -4.77083e-015 -3.08116e-015 -0 0.9571 1.114 1.7695 -1.59028e-015 -9.93923e-017 -1.59028e-015 4.1246 0.487 4.1451 3.18055e-015 3.47873e-014 2.38542e-015 3.4052 -1.454 2.7682 -6.36111e-015 -3.18055e-015 -7.95139e-016 1.4531 -1.795 1.2713 -7.95139e-016 3.97569e-016 -1.59028e-015 5.6954 0.21 2.1184 3.18055e-015 3.47873e-014 2.38542e-015 3.9766 -1.54 2.3863 -6.36111e-015 -3.18055e-015 -7.95139e-016 1.4042 -1.926 1.125 -7.95139e-016 3.97569e-016 -1.59028e-015 2.0956 0.66 -0.3894 -1.59028e-015 -9.93923e-017 -1.59028e-015 5.0395 -0.09 2.4971 3.18055e-015 3.47873e-014 2.38542e-015 3.7921 -1.552 1.4806 -6.36111e-015 -3.18055e-015 -7.95139e-016 1.4655 -1.808 0.9609 -7.95139e-016 3.97569e-016 -1.59028e-015 4.9141 -1.269 0.3591 3.18055e-015 3.47873e-014 2.38542e-015 3.1477 -1.685 0.8462 -6.36111e-015 -3.18055e-015 -7.95139e-016 0.8055 -1.585 0.7955 -7.95139e-016 3.97569e-016 -1.59028e-015 -1.7069 20.075 5.0056 13.4761 0.712196 -27.9601 -13.6458 -0.047 -4.849 -7.3738 -15.9299 55.6361 -28.3255 -0.9759 2.2888 34.8903 -41.0102 118.416 -22.1583 -0.53 10.8316 -38.5039 24.2928 4.2653 -0.786 0.112 2.5817 -3.52411e-006 -1.25562e-006 7.62402e-007 -0.3601 -0.878 4.2331 -3.08447e-006 1.1274e-006 -4.49311e-006 -1.8127 -1.216 2.2227 -7.95139e-016 -1.14798e-014 1.98785e-015 -0.9571 1.114 1.7695 7.95139e-016 5.86415e-015 3.97569e-016 -4.1246 0.487 4.1451 -3.52411e-006 -1.25562e-006 7.62402e-007 -3.4052 -1.454 2.7682 -3.08447e-006 1.1274e-006 -4.49311e-006 -1.4531 -1.795 1.2713 -1.59028e-015 -8.34896e-015 2.38542e-015 -5.6954 0.21 2.1184 -3.52411e-006 -1.25562e-006 7.62402e-007 -3.9766 -1.54 2.3863 -3.08447e-006 1.1274e-006 -4.49311e-006 -1.4042 -1.926 1.125 -1.59028e-015 -8.34896e-015 2.38542e-015 -2.0956 0.66 -0.3894 7.95139e-016 5.86415e-015 3.97569e-016 -5.0395 -0.09 2.4971 -3.52411e-006 -1.25562e-006 7.62402e-007 -3.7921 -1.552 1.4806 -3.08447e-006 1.1274e-006 -4.49311e-006 -1.4655 -1.808 0.9609 -1.59028e-015 -8.34896e-015 2.38542e-015 -4.9141 -1.269 0.3592 -3.52411e-006 -1.25562e-006 7.62402e-007 -3.1477 -1.685 0.8462 -3.08447e-006 1.1274e-006 -4.49311e-006 -0.8055 -1.585 0.7955 -1.59028e-015 -8.34896e-015 2.38542e-015 8.367 -8.2066 0.5982 104.711 -66.5443 120.873 2.1923 -43.463 -0.4932 164.199 74.5299 -161.344 0.7333 -45.8593 -2.6451 18.2762 58.7845 -8.84394 -8.367 -8.2066 0.5982 -104.81 -66.4114 -121.097 -2.1923 -43.463 -0.4931 -164.038 74.4155 161.22 -0.7333 -45.8593 -2.6451 -18.632 59.3415 9.09086 
